<?xml version="1.0" encoding="UTF-8" standalone="no"?>
<!DOCTYPE svg PUBLIC "-//W3C//DTD SVG 1.1//EN"
 "http://www.w3.org/Graphics/SVG/1.1/DTD/svg11.dtd">
<!-- Generated by graphviz version 12.2.1 (20241206.2353)
 -->
<!-- Title: ConexaoSolidaria Pages: 1 -->
<svg width="1787pt" height="788pt"
 viewBox="0.00 0.00 1787.40 788.02" xmlns="http://www.w3.org/2000/svg" xmlns:xlink="http://www.w3.org/1999/xlink">
<g id="graph0" class="graph" transform="scale(1 1) rotate(0) translate(25.2 762.82)">
<title>ConexaoSolidaria</title>
<polygon fill="#f7f9f8" stroke="none" points="-25.2,25.2 -25.2,-762.82 1762.2,-762.82 1762.2,25.2 -25.2,25.2"/>
<text text-anchor="middle" x="868.5" y="-716.52" font-family="Arial" font-size="18.00">CONEXÃO SOLIDÁRIA &#160;| &#160;ARQUITETURA DA PLATAFORMA</text>
<g id="clust1" class="cluster">
<title>cluster_access</title>
<path fill="#edf4f0" stroke="#bed3c9" d="M441,-510.09C441,-510.09 1045,-510.09 1045,-510.09 1051,-510.09 1057,-516.09 1057,-522.09 1057,-522.09 1057,-620.87 1057,-620.87 1057,-626.87 1051,-632.87 1045,-632.87 1045,-632.87 441,-632.87 441,-632.87 435,-632.87 429,-626.87 429,-620.87 429,-620.87 429,-522.09 429,-522.09 429,-516.09 435,-510.09 441,-510.09"/>
<text text-anchor="middle" x="743" y="-611.77" font-family="Arial" font-size="18.00" fill="#164b3c">EXPERIÊNCIA E ACESSO</text>
</g>
<g id="clust3" class="cluster">
<title>cluster_services</title>
<path fill="#ffffff" stroke="#cfd8d3" d="M20,-314.06C20,-314.06 1288,-314.06 1288,-314.06 1294,-314.06 1300,-320.06 1300,-326.06 1300,-326.06 1300,-424.84 1300,-424.84 1300,-430.84 1294,-436.84 1288,-436.84 1288,-436.84 20,-436.84 20,-436.84 14,-436.84 8,-430.84 8,-424.84 8,-424.84 8,-326.06 8,-326.06 8,-320.06 14,-314.06 20,-314.06"/>
<text text-anchor="middle" x="654" y="-415.74" font-family="Arial" font-size="18.00" fill="#29352f">CAPACIDADES DE NEGÓCIO &#160;| &#160;.NET 10</text>
</g>
<g id="clust5" class="cluster">
<title>cluster_data</title>
<path fill="#fbf8f1" stroke="#d8d0be" d="M284,-161.03C284,-161.03 1131,-161.03 1131,-161.03 1137,-161.03 1143,-167.03 1143,-173.03 1143,-173.03 1143,-271.81 1143,-271.81 1143,-277.81 1137,-283.81 1131,-283.81 1131,-283.81 284,-283.81 284,-283.81 278,-283.81 272,-277.81 272,-271.81 272,-271.81 272,-173.03 272,-173.03 272,-167.03 278,-161.03 284,-161.03"/>
<text text-anchor="middle" x="707.5" y="-262.71" font-family="Arial" font-size="18.00" fill="#544a34">DADOS E INTEGRAÇÃO</text>
</g>
<g id="clust7" class="cluster">
<title>cluster_observability</title>
<path fill="#eff4f6" stroke="#c9d5d9" d="M354,-8C354,-8 1717,-8 1717,-8 1723,-8 1729,-14 1729,-20 1729,-20 1729,-118.78 1729,-118.78 1729,-124.78 1723,-130.78 1717,-130.78 1717,-130.78 354,-130.78 354,-130.78 348,-130.78 342,-124.78 342,-118.78 342,-118.78 342,-20 342,-20 342,-14 348,-8 354,-8"/>
<text text-anchor="middle" x="1035.5" y="-109.68" font-family="Arial" font-size="18.00" fill="#304d58">OBSERVABILIDADE OPERACIONAL</text>
</g>
<!-- personas -->
<g id="node1" class="node">
<title>personas</title>
<path fill="#fff4d2" stroke="#e8bc4b" d="M617.84,-707.12C617.84,-707.12 432.17,-707.12 432.17,-707.12 426.17,-707.12 420.17,-701.12 420.17,-695.12 420.17,-695.12 420.17,-683.12 420.17,-683.12 420.17,-677.12 426.17,-671.12 432.17,-671.12 432.17,-671.12 617.84,-671.12 617.84,-671.12 623.84,-671.12 629.84,-677.12 629.84,-683.12 629.84,-683.12 629.84,-695.12 629.84,-695.12 629.84,-701.12 623.84,-707.12 617.84,-707.12"/>
<text text-anchor="middle" x="525" y="-685.79" font-family="Arial" font-size="11.00" fill="#17211d">DOADOR &#160;• &#160;GESTOR ONG &#160;• &#160;PÚBLICO</text>
</g>
<!-- web -->
<g id="node2" class="node">
<title>web</title>
<path fill="#ffffff" stroke="#cad5cf" d="M601.34,-563.87C601.34,-563.87 448.67,-563.87 448.67,-563.87 442.67,-563.87 436.67,-557.87 436.67,-551.87 436.67,-551.87 436.67,-530.09 436.67,-530.09 436.67,-524.09 442.67,-518.09 448.67,-518.09 448.67,-518.09 601.34,-518.09 601.34,-518.09 607.34,-518.09 613.34,-524.09 613.34,-530.09 613.34,-530.09 613.34,-551.87 613.34,-551.87 613.34,-557.87 607.34,-563.87 601.34,-563.87"/>
<text text-anchor="middle" x="525" y="-544.78" font-family="Arial" font-size="11.00" fill="#17211d">BLAZOR WEB APP</text>
<text text-anchor="middle" x="525" y="-530.53" font-family="Arial" font-size="11.00" fill="#17211d">Portal público, doador e gestão</text>
</g>
<!-- personas&#45;&gt;web -->
<g id="edge1" class="edge">
<title>personas&#45;&gt;web</title>
<path fill="none" stroke="#75867d" d="M525,-670.78C525,-646.63 525,-602.47 525,-572.68"/>
<polygon fill="#75867d" stroke="#75867d" points="527.45,-572.82 525,-565.82 522.55,-572.82 527.45,-572.82"/>
<text text-anchor="middle" x="538.88" y="-643.57" font-family="Arial" font-size="9.00" fill="#52615a">HTTPS</text>
</g>
<!-- gateway -->
<g id="node3" class="node">
<title>gateway</title>
<path fill="#ddeee7" stroke="#176b50" d="M841.59,-563.87C841.59,-563.87 678.41,-563.87 678.41,-563.87 672.41,-563.87 666.41,-557.87 666.41,-551.87 666.41,-551.87 666.41,-530.09 666.41,-530.09 666.41,-524.09 672.41,-518.09 678.41,-518.09 678.41,-518.09 841.59,-518.09 841.59,-518.09 847.59,-518.09 853.59,-524.09 853.59,-530.09 853.59,-530.09 853.59,-551.87 853.59,-551.87 853.59,-557.87 847.59,-563.87 841.59,-563.87"/>
<text text-anchor="middle" x="760" y="-544.78" font-family="Arial" font-size="11.00" fill="#17211d">YARP GATEWAY / BFF</text>
<text text-anchor="middle" x="760" y="-530.53" font-family="Arial" font-size="11.00" fill="#17211d">Roteamento • Rate limiting • JWT</text>
</g>
<!-- web&#45;&gt;gateway -->
<g id="edge2" class="edge">
<title>web&#45;&gt;gateway</title>
<path fill="none" stroke="#75867d" d="M613.51,-540.98C628,-540.98 643.12,-540.98 657.9,-540.98"/>
<polygon fill="#75867d" stroke="#75867d" points="657.57,-543.43 664.57,-540.98 657.57,-538.53 657.57,-543.43"/>
<text text-anchor="middle" x="639.88" y="-546.68" font-family="Arial" font-size="9.00" fill="#52615a">BFF</text>
</g>
<!-- keycloak -->
<g id="node4" class="node">
<title>keycloak</title>
<path fill="#e4ecf8" stroke="#4b6fa8" d="M1037.09,-563.87C1037.09,-563.87 918.91,-563.87 918.91,-563.87 912.91,-563.87 906.91,-557.87 906.91,-551.87 906.91,-551.87 906.91,-530.09 906.91,-530.09 906.91,-524.09 912.91,-518.09 918.91,-518.09 918.91,-518.09 1037.09,-518.09 1037.09,-518.09 1043.09,-518.09 1049.09,-524.09 1049.09,-530.09 1049.09,-530.09 1049.09,-551.87 1049.09,-551.87 1049.09,-557.87 1043.09,-563.87 1037.09,-563.87"/>
<text text-anchor="middle" x="978" y="-544.78" font-family="Arial" font-size="11.00" fill="#17211d">KEYCLOAK</text>
<text text-anchor="middle" x="978" y="-530.53" font-family="Arial" font-size="11.00" fill="#17211d">OIDC • RBAC • tenant_id</text>
</g>
<!-- web&#45;&gt;keycloak -->
<g id="edge3" class="edge">
<title>web&#45;&gt;keycloak</title>
<path fill="none" stroke="#75867d" d="M560.66,-564.21C598.53,-588.88 653,-624.37 653,-624.37 653,-624.37 867,-624.37 867,-624.37 867,-624.37 908.17,-593.44 940.36,-569.25"/>
<polygon fill="#75867d" stroke="#75867d" points="941.75,-571.28 945.87,-565.12 938.8,-567.36 941.75,-571.28"/>
<text text-anchor="middle" x="760" y="-643.57" font-family="Arial" font-size="9.00" fill="#52615a">OIDC</text>
</g>
<!-- gateway&#45;&gt;keycloak -->
<g id="edge4" class="edge">
<title>gateway&#45;&gt;keycloak</title>
<path fill="none" stroke="#75867d" d="M854.03,-540.98C868.77,-540.98 883.88,-540.98 898.26,-540.98"/>
<polygon fill="#75867d" stroke="#75867d" points="898.12,-543.43 905.12,-540.98 898.12,-538.53 898.12,-543.43"/>
<text text-anchor="middle" x="880.25" y="-546.68" font-family="Arial" font-size="9.00" fill="#52615a">JWT</text>
</g>
<!-- routing -->
<g id="node5" class="node">
<title>routing</title>
<path fill="#ffffff" stroke="none" d="M834.38,-479.09C834.38,-479.09 685.62,-479.09 685.62,-479.09 683.25,-479.09 680.88,-476.71 680.88,-474.34 680.88,-474.34 680.88,-469.59 680.88,-469.59 680.88,-467.21 683.25,-464.84 685.62,-464.84 685.62,-464.84 834.38,-464.84 834.38,-464.84 836.75,-464.84 839.12,-467.21 839.12,-469.59 839.12,-469.59 839.12,-474.34 839.12,-474.34 839.12,-476.71 836.75,-479.09 834.38,-479.09"/>
<text text-anchor="middle" x="760" y="-468.64" font-family="Arial" font-size="11.00" fill="#52615a">APIs SÍNCRONAS AUTORIZADAS</text>
</g>
<!-- gateway&#45;&gt;routing -->
<g id="edge5" class="edge">
<title>gateway&#45;&gt;routing</title>
<path fill="none" stroke="#75867d" d="M760,-517.66C760,-507.6 760,-496.01 760,-487.15"/>
<polygon fill="#75867d" stroke="#75867d" points="762.45,-487.33 760,-480.33 757.55,-487.33 762.45,-487.33"/>
</g>
<!-- identity -->
<g id="node6" class="node">
<title>identity</title>
<path fill="#ffffff" stroke="#cad5cf" d="M161.96,-367.84C161.96,-367.84 28.04,-367.84 28.04,-367.84 22.04,-367.84 16.04,-361.84 16.04,-355.84 16.04,-355.84 16.04,-334.06 16.04,-334.06 16.04,-328.06 22.04,-322.06 28.04,-322.06 28.04,-322.06 161.96,-322.06 161.96,-322.06 167.96,-322.06 173.96,-328.06 173.96,-334.06 173.96,-334.06 173.96,-355.84 173.96,-355.84 173.96,-361.84 167.96,-367.84 161.96,-367.84"/>
<text text-anchor="middle" x="95" y="-348.75" font-family="Arial" font-size="11.00" fill="#17211d">IDENTITY API</text>
<text text-anchor="middle" x="95" y="-334.5" font-family="Arial" font-size="11.00" fill="#17211d">Cadastro e perfil do doador</text>
</g>
<!-- routing&#45;&gt;identity -->
<g id="edge6" class="edge">
<title>routing&#45;&gt;identity</title>
<path fill="none" stroke="#75867d" d="M681.07,-466.26C524.15,-456.89 188,-436.84 188,-436.84 188,-436.84 150.87,-400.55 123.53,-373.83"/>
<polygon fill="#75867d" stroke="#75867d" points="125.31,-372.15 118.6,-369.01 121.89,-375.65 125.31,-372.15"/>
</g>
<!-- campaigns -->
<g id="node7" class="node">
<title>campaigns</title>
<path fill="#ffffff" stroke="#cad5cf" d="M848.71,-367.84C848.71,-367.84 671.29,-367.84 671.29,-367.84 665.29,-367.84 659.29,-361.84 659.29,-355.84 659.29,-355.84 659.29,-334.06 659.29,-334.06 659.29,-328.06 665.29,-322.06 671.29,-322.06 671.29,-322.06 848.71,-322.06 848.71,-322.06 854.71,-322.06 860.71,-328.06 860.71,-334.06 860.71,-334.06 860.71,-355.84 860.71,-355.84 860.71,-361.84 854.71,-367.84 848.71,-367.84"/>
<text text-anchor="middle" x="760" y="-348.75" font-family="Arial" font-size="11.00" fill="#17211d">CAMPAIGNS API</text>
<text text-anchor="middle" x="760" y="-334.5" font-family="Arial" font-size="11.00" fill="#17211d">Campanhas • Transparência • Busca</text>
</g>
<!-- routing&#45;&gt;campaigns -->
<g id="edge7" class="edge">
<title>routing&#45;&gt;campaigns</title>
<path fill="none" stroke="#75867d" d="M760,-464.94C760,-449.22 760,-406.17 760,-376.4"/>
<polygon fill="#75867d" stroke="#75867d" points="762.45,-376.53 760,-369.53 757.55,-376.53 762.45,-376.53"/>
</g>
<!-- payments -->
<g id="node8" class="node">
<title>payments</title>
<path fill="#ffffff" stroke="#cad5cf" d="M372.71,-367.84C372.71,-367.84 213.29,-367.84 213.29,-367.84 207.29,-367.84 201.29,-361.84 201.29,-355.84 201.29,-355.84 201.29,-334.06 201.29,-334.06 201.29,-328.06 207.29,-322.06 213.29,-322.06 213.29,-322.06 372.71,-322.06 372.71,-322.06 378.71,-322.06 384.71,-328.06 384.71,-334.06 384.71,-334.06 384.71,-355.84 384.71,-355.84 384.71,-361.84 378.71,-367.84 372.71,-367.84"/>
<text text-anchor="middle" x="293" y="-348.75" font-family="Arial" font-size="11.00" fill="#17211d">PAYMENTS API</text>
<text text-anchor="middle" x="293" y="-334.5" font-family="Arial" font-size="11.00" fill="#17211d">Pix • Cartão • Boleto • Webhooks</text>
</g>
<!-- routing&#45;&gt;payments -->
<g id="edge8" class="edge">
<title>routing&#45;&gt;payments</title>
<path fill="none" stroke="#75867d" d="M695.28,-464.86C591.16,-455.05 398,-436.84 398,-436.84 398,-436.84 355.96,-400.45 325.09,-373.72"/>
<polygon fill="#75867d" stroke="#75867d" points="326.73,-371.9 319.83,-369.17 323.52,-375.61 326.73,-371.9"/>
</g>
<!-- audit -->
<g id="node10" class="node">
<title>audit</title>
<path fill="#ffffff" stroke="#cad5cf" d="M1076.71,-367.84C1076.71,-367.84 899.29,-367.84 899.29,-367.84 893.29,-367.84 887.29,-361.84 887.29,-355.84 887.29,-355.84 887.29,-334.06 887.29,-334.06 887.29,-328.06 893.29,-322.06 899.29,-322.06 899.29,-322.06 1076.71,-322.06 1076.71,-322.06 1082.71,-322.06 1088.71,-328.06 1088.71,-334.06 1088.71,-334.06 1088.71,-355.84 1088.71,-355.84 1088.71,-361.84 1082.71,-367.84 1076.71,-367.84"/>
<text text-anchor="middle" x="988" y="-348.75" font-family="Arial" font-size="11.00" fill="#17211d">AUDIT API / WORKER</text>
<text text-anchor="middle" x="988" y="-334.5" font-family="Arial" font-size="11.00" fill="#17211d">Trilha append&#45;only e correlacionada</text>
</g>
<!-- routing&#45;&gt;audit -->
<g id="edge9" class="edge">
<title>routing&#45;&gt;audit</title>
<path fill="none" stroke="#75867d" d="M780.38,-464.86C813.17,-455.05 874,-436.84 874,-436.84 874,-436.84 920.02,-400.15 953.58,-373.39"/>
<polygon fill="#75867d" stroke="#75867d" points="954.98,-375.41 958.93,-369.13 951.93,-371.58 954.98,-375.41"/>
</g>
<!-- knowledge -->
<g id="node11" class="node">
<title>knowledge</title>
<path fill="#ffffff" stroke="#cad5cf" d="M1279.96,-367.84C1279.96,-367.84 1128.04,-367.84 1128.04,-367.84 1122.04,-367.84 1116.04,-361.84 1116.04,-355.84 1116.04,-355.84 1116.04,-334.06 1116.04,-334.06 1116.04,-328.06 1122.04,-322.06 1128.04,-322.06 1128.04,-322.06 1279.96,-322.06 1279.96,-322.06 1285.96,-322.06 1291.96,-328.06 1291.96,-334.06 1291.96,-334.06 1291.96,-355.84 1291.96,-355.84 1291.96,-361.84 1285.96,-367.84 1279.96,-367.84"/>
<text text-anchor="middle" x="1204" y="-348.75" font-family="Arial" font-size="11.00" fill="#17211d">KNOWLEDGE API</text>
<text text-anchor="middle" x="1204" y="-334.5" font-family="Arial" font-size="11.00" fill="#17211d">Respostas baseadas em fontes</text>
</g>
<!-- routing&#45;&gt;knowledge -->
<g id="edge10" class="edge">
<title>routing&#45;&gt;knowledge</title>
<path fill="none" stroke="#75867d" d="M821.14,-464.86C919.51,-455.05 1102,-436.84 1102,-436.84 1102,-436.84 1142.84,-400.45 1172.83,-373.72"/>
<polygon fill="#75867d" stroke="#75867d" points="1174.32,-375.68 1177.92,-369.19 1171.06,-372.02 1174.32,-375.68"/>
</g>
<!-- postgres -->
<g id="node12" class="node">
<title>postgres</title>
<path fill="#e5eef8" stroke="#4b6fa8" d="M437.58,-214.81C437.58,-214.81 292.42,-214.81 292.42,-214.81 286.42,-214.81 280.42,-208.81 280.42,-202.81 280.42,-202.81 280.42,-181.03 280.42,-181.03 280.42,-175.03 286.42,-169.03 292.42,-169.03 292.42,-169.03 437.58,-169.03 437.58,-169.03 443.58,-169.03 449.58,-175.03 449.58,-181.03 449.58,-181.03 449.58,-202.81 449.58,-202.81 449.58,-208.81 443.58,-214.81 437.58,-214.81"/>
<text text-anchor="middle" x="365" y="-195.72" font-family="Arial" font-size="11.00" fill="#17211d">POSTGRESQL</text>
<text text-anchor="middle" x="365" y="-181.47" font-family="Arial" font-size="11.00" fill="#17211d">Transações • Ledger • Outbox</text>
</g>
<!-- identity&#45;&gt;postgres -->
<g id="edge11" class="edge">
<title>identity&#45;&gt;postgres</title>
<path fill="none" stroke="#75867d" d="M134.84,-321.67C183.49,-294.45 265.7,-248.46 317.57,-219.45"/>
<polygon fill="#75867d" stroke="#75867d" points="318.76,-221.59 323.68,-216.04 316.37,-217.31 318.76,-221.59"/>
</g>
<!-- campaigns&#45;&gt;postgres -->
<g id="edge12" class="edge">
<title>campaigns&#45;&gt;postgres</title>
<path fill="none" stroke="#75867d" d="M681.6,-321.61C631.93,-307.46 577,-291.81 577,-291.81 577,-291.81 463,-283.81 463,-283.81 463,-283.81 423.77,-247.42 394.95,-220.69"/>
<polygon fill="#75867d" stroke="#75867d" points="396.88,-219.15 390.08,-216.18 393.55,-222.74 396.88,-219.15"/>
</g>
<!-- redis -->
<g id="node13" class="node">
<title>redis</title>
<path fill="#f8e2e1" stroke="#b9514c" d="M759.34,-214.81C759.34,-214.81 678.66,-214.81 678.66,-214.81 672.66,-214.81 666.66,-208.81 666.66,-202.81 666.66,-202.81 666.66,-181.03 666.66,-181.03 666.66,-175.03 672.66,-169.03 678.66,-169.03 678.66,-169.03 759.34,-169.03 759.34,-169.03 765.34,-169.03 771.34,-175.03 771.34,-181.03 771.34,-181.03 771.34,-202.81 771.34,-202.81 771.34,-208.81 765.34,-214.81 759.34,-214.81"/>
<text text-anchor="middle" x="719" y="-195.72" font-family="Arial" font-size="11.00" fill="#17211d">REDIS</text>
<text text-anchor="middle" x="719" y="-181.47" font-family="Arial" font-size="11.00" fill="#17211d">Cache de leitura</text>
</g>
<!-- campaigns&#45;&gt;redis -->
<g id="edge13" class="edge">
<title>campaigns&#45;&gt;redis</title>
<path fill="none" stroke="#75867d" d="M753.95,-321.67C746.9,-295.68 735.19,-252.57 727.29,-223.47"/>
<polygon fill="#75867d" stroke="#75867d" points="729.67,-222.87 725.47,-216.76 724.94,-224.15 729.67,-222.87"/>
</g>
<!-- rabbit -->
<g id="node14" class="node">
<title>rabbit</title>
<path fill="#fce8d8" stroke="#d77729" d="M627.21,-214.81C627.21,-214.81 488.79,-214.81 488.79,-214.81 482.79,-214.81 476.79,-208.81 476.79,-202.81 476.79,-202.81 476.79,-181.03 476.79,-181.03 476.79,-175.03 482.79,-169.03 488.79,-169.03 488.79,-169.03 627.21,-169.03 627.21,-169.03 633.21,-169.03 639.21,-175.03 639.21,-181.03 639.21,-181.03 639.21,-202.81 639.21,-202.81 639.21,-208.81 633.21,-214.81 627.21,-214.81"/>
<text text-anchor="middle" x="558" y="-195.72" font-family="Arial" font-size="11.00" fill="#17211d">RABBITMQ + MASSTRANSIT</text>
<text text-anchor="middle" x="558" y="-181.47" font-family="Arial" font-size="11.00" fill="#17211d">Eventos • Retry • DLQ</text>
</g>
<!-- campaigns&#45;&gt;rabbit -->
<g id="edge17" class="edge">
<title>campaigns&#45;&gt;rabbit</title>
<path fill="none" stroke="#75867d" d="M720.46,-321.73C689.98,-304.6 653,-283.81 653,-283.81 653,-283.81 615.07,-247.52 587.14,-220.8"/>
<polygon fill="#75867d" stroke="#75867d" points="588.84,-219.04 582.09,-215.97 585.45,-222.58 588.84,-219.04"/>
<text text-anchor="middle" x="700.37" y="-294.51" font-family="Arial" font-size="9.00" fill="#52615a">eventos</text>
</g>
<!-- search -->
<g id="node15" class="node">
<title>search</title>
<path fill="#e9e4f5" stroke="#7458a6" d="M961.96,-214.81C961.96,-214.81 810.04,-214.81 810.04,-214.81 804.04,-214.81 798.04,-208.81 798.04,-202.81 798.04,-202.81 798.04,-181.03 798.04,-181.03 798.04,-175.03 804.04,-169.03 810.04,-169.03 810.04,-169.03 961.96,-169.03 961.96,-169.03 967.96,-169.03 973.96,-175.03 973.96,-181.03 973.96,-181.03 973.96,-202.81 973.96,-202.81 973.96,-208.81 967.96,-214.81 961.96,-214.81"/>
<text text-anchor="middle" x="886" y="-195.72" font-family="Arial" font-size="11.00" fill="#17211d">OPENSEARCH</text>
<text text-anchor="middle" x="886" y="-181.47" font-family="Arial" font-size="11.00" fill="#17211d">Busca fuzzy • Base documental</text>
</g>
<!-- campaigns&#45;&gt;search -->
<g id="edge14" class="edge">
<title>campaigns&#45;&gt;search</title>
<path fill="none" stroke="#75867d" d="M778.59,-321.67C800.74,-295.12 837.78,-250.71 862.06,-221.62"/>
<polygon fill="#75867d" stroke="#75867d" points="863.76,-223.4 866.36,-216.46 860,-220.26 863.76,-223.4"/>
</g>
<!-- payments&#45;&gt;postgres -->
<g id="edge15" class="edge">
<title>payments&#45;&gt;postgres</title>
<path fill="none" stroke="#75867d" d="M303.62,-321.67C316.12,-295.45 336.92,-251.83 350.79,-222.73"/>
<polygon fill="#75867d" stroke="#75867d" points="352.88,-224.04 353.68,-216.66 348.46,-221.93 352.88,-224.04"/>
</g>
<!-- payments&#45;&gt;rabbit -->
<g id="edge16" class="edge">
<title>payments&#45;&gt;rabbit</title>
<path fill="none" stroke="#75867d" d="M353.63,-321.69C392.23,-307.52 435,-291.81 435,-291.81 435,-291.81 463,-283.81 463,-283.81 463,-283.81 500.93,-247.52 528.86,-220.8"/>
<polygon fill="#75867d" stroke="#75867d" points="530.55,-222.58 533.91,-215.97 527.16,-219.04 530.55,-222.58"/>
<text text-anchor="middle" x="450" y="-294.51" font-family="Arial" font-size="9.00" fill="#52615a">Outbox</text>
</g>
<!-- worker -->
<g id="node9" class="node">
<title>worker</title>
<path fill="#ffffff" stroke="#cad5cf" d="M620.09,-367.84C620.09,-367.84 423.91,-367.84 423.91,-367.84 417.91,-367.84 411.91,-361.84 411.91,-355.84 411.91,-355.84 411.91,-334.06 411.91,-334.06 411.91,-328.06 417.91,-322.06 423.91,-322.06 423.91,-322.06 620.09,-322.06 620.09,-322.06 626.09,-322.06 632.09,-328.06 632.09,-334.06 632.09,-334.06 632.09,-355.84 632.09,-355.84 632.09,-361.84 626.09,-367.84 620.09,-367.84"/>
<text text-anchor="middle" x="522" y="-348.75" font-family="Arial" font-size="11.00" fill="#17211d">DONATIONS WORKER</text>
<text text-anchor="middle" x="522" y="-334.5" font-family="Arial" font-size="11.00" fill="#17211d">Inbox • Idempotência • Total arrecadado</text>
</g>
<!-- worker&#45;&gt;postgres -->
<g id="edge20" class="edge">
<title>worker&#45;&gt;postgres</title>
<path fill="none" stroke="#75867d" d="M498.83,-321.67C471.01,-294.89 424.3,-249.97 394.08,-220.89"/>
<polygon fill="#75867d" stroke="#75867d" points="396.09,-219.43 389.35,-216.35 392.7,-222.96 396.09,-219.43"/>
<text text-anchor="middle" x="490.98" y="-294.51" font-family="Arial" font-size="9.00" fill="#52615a">atualiza</text>
</g>
<!-- mongo -->
<g id="node16" class="node">
<title>mongo</title>
<path fill="#e5f1df" stroke="#5e8d47" d="M1122.96,-214.81C1122.96,-214.81 1013.04,-214.81 1013.04,-214.81 1007.04,-214.81 1001.04,-208.81 1001.04,-202.81 1001.04,-202.81 1001.04,-181.03 1001.04,-181.03 1001.04,-175.03 1007.04,-169.03 1013.04,-169.03 1013.04,-169.03 1122.96,-169.03 1122.96,-169.03 1128.96,-169.03 1134.96,-175.03 1134.96,-181.03 1134.96,-181.03 1134.96,-202.81 1134.96,-202.81 1134.96,-208.81 1128.96,-214.81 1122.96,-214.81"/>
<text text-anchor="middle" x="1068" y="-195.72" font-family="Arial" font-size="11.00" fill="#17211d">MONGODB</text>
<text text-anchor="middle" x="1068" y="-181.47" font-family="Arial" font-size="11.00" fill="#17211d">Auditoria append&#45;only</text>
</g>
<!-- audit&#45;&gt;mongo -->
<g id="edge22" class="edge">
<title>audit&#45;&gt;mongo</title>
<path fill="none" stroke="#75867d" d="M999.8,-321.67C1013.69,-295.45 1036.8,-251.83 1052.21,-222.73"/>
<polygon fill="#75867d" stroke="#75867d" points="1054.33,-223.97 1055.44,-216.63 1050,-221.67 1054.33,-223.97"/>
</g>
<!-- knowledge&#45;&gt;search -->
<g id="edge21" class="edge">
<title>knowledge&#45;&gt;search</title>
<path fill="none" stroke="#75867d" d="M1127.74,-321.6C1112.98,-317.28 1102,-314.06 1102,-314.06 1102,-314.06 988,-283.81 988,-283.81 988,-283.81 947.16,-247.42 917.17,-220.69"/>
<polygon fill="#75867d" stroke="#75867d" points="918.94,-218.99 912.08,-216.16 915.68,-222.65 918.94,-218.99"/>
</g>
<!-- telemetry -->
<g id="node17" class="node">
<title>telemetry</title>
<path fill="#ffffff" stroke="#cad5cf" d="M601.84,-61.78C601.84,-61.78 362.16,-61.78 362.16,-61.78 356.16,-61.78 350.16,-55.78 350.16,-49.78 350.16,-49.78 350.16,-28 350.16,-28 350.16,-22 356.16,-16 362.16,-16 362.16,-16 601.84,-16 601.84,-16 607.84,-16 613.84,-22 613.84,-28 613.84,-28 613.84,-49.78 613.84,-49.78 613.84,-55.78 607.84,-61.78 601.84,-61.78"/>
<text text-anchor="middle" x="482" y="-42.69" font-family="Arial" font-size="11.00" fill="#17211d">SERILOG • CORRELATION ID • OPENTELEMETRY</text>
<text text-anchor="middle" x="482" y="-28.44" font-family="Arial" font-size="11.00" fill="#17211d">Instrumentação transversal de todos os serviços</text>
</g>
<!-- postgres&#45;&gt;telemetry -->
<g id="edge23" class="edge">
<title>postgres&#45;&gt;telemetry</title>
<path fill="none" stroke="#75867d" stroke-dasharray="5,2" d="M382.26,-168.64C404.38,-140.08 442.51,-90.87 464.67,-62.27"/>
</g>
<!-- rabbit&#45;&gt;worker -->
<g id="edge18" class="edge">
<title>rabbit&#45;&gt;worker</title>
<path fill="none" stroke="#75867d" d="M552.67,-215.3C546.46,-241.33 536.19,-284.43 529.26,-313.5"/>
<polygon fill="#75867d" stroke="#75867d" points="526.9,-312.82 527.66,-320.19 531.67,-313.95 526.9,-312.82"/>
<text text-anchor="middle" x="552.39" y="-294.51" font-family="Arial" font-size="9.00" fill="#52615a">consome</text>
</g>
<!-- rabbit&#45;&gt;audit -->
<g id="edge19" class="edge">
<title>rabbit&#45;&gt;audit</title>
<path fill="none" stroke="#75867d" d="M581,-214.92C609.11,-241.82 653,-283.81 653,-283.81 653,-283.81 722,-291.81 722,-291.81 722,-291.81 874,-314.06 874,-314.06 874,-314.06 882.42,-316.27 894.68,-319.48"/>
<polygon fill="#75867d" stroke="#75867d" points="893.91,-321.81 901.3,-321.22 895.15,-317.07 893.91,-321.81"/>
<text text-anchor="middle" x="816.75" y="-294.51" font-family="Arial" font-size="9.00" fill="#52615a">consome</text>
</g>
<!-- rabbit&#45;&gt;telemetry -->
<g id="edge24" class="edge">
<title>rabbit&#45;&gt;telemetry</title>
<path fill="none" stroke="#75867d" stroke-dasharray="5,2" d="M546.79,-168.64C532.42,-140.08 507.65,-90.87 493.26,-62.27"/>
</g>
<!-- collector -->
<g id="node18" class="node">
<title>collector</title>
<path fill="#e7edf8" stroke="#4b6fa8" d="M785.09,-61.78C785.09,-61.78 678.91,-61.78 678.91,-61.78 672.91,-61.78 666.91,-55.78 666.91,-49.78 666.91,-49.78 666.91,-28 666.91,-28 666.91,-22 672.91,-16 678.91,-16 678.91,-16 785.09,-16 785.09,-16 791.09,-16 797.09,-22 797.09,-28 797.09,-28 797.09,-49.78 797.09,-49.78 797.09,-55.78 791.09,-61.78 785.09,-61.78"/>
<text text-anchor="middle" x="732" y="-42.69" font-family="Arial" font-size="11.00" fill="#17211d">OTEL COLLECTOR</text>
<text text-anchor="middle" x="732" y="-28.44" font-family="Arial" font-size="11.00" fill="#17211d">OTLP • Batch • Export</text>
</g>
<!-- telemetry&#45;&gt;collector -->
<g id="edge25" class="edge">
<title>telemetry&#45;&gt;collector</title>
<path fill="none" stroke="#75867d" d="M614.32,-38.89C629.35,-38.89 644.25,-38.89 658.12,-38.89"/>
<polygon fill="#75867d" stroke="#75867d" points="658.11,-41.34 665.11,-38.89 658.11,-36.44 658.11,-41.34"/>
<text text-anchor="middle" x="640.38" y="-44.59" font-family="Arial" font-size="9.00" fill="#52615a">OTLP</text>
</g>
<!-- grafana -->
<g id="node20" class="node">
<title>grafana</title>
<path fill="#e6f0f3" stroke="#477589" d="M1274.46,-61.78C1274.46,-61.78 1119.54,-61.78 1119.54,-61.78 1113.54,-61.78 1107.54,-55.78 1107.54,-49.78 1107.54,-49.78 1107.54,-28 1107.54,-28 1107.54,-22 1113.54,-16 1119.54,-16 1119.54,-16 1274.46,-16 1274.46,-16 1280.46,-16 1286.46,-22 1286.46,-28 1286.46,-28 1286.46,-49.78 1286.46,-49.78 1286.46,-55.78 1280.46,-61.78 1274.46,-61.78"/>
<text text-anchor="middle" x="1197" y="-42.69" font-family="Arial" font-size="11.00" fill="#17211d">PROMETHEUS + GRAFANA</text>
<text text-anchor="middle" x="1197" y="-28.44" font-family="Arial" font-size="11.00" fill="#17211d">Métricas • Dashboards • Traces</text>
</g>
<!-- telemetry&#45;&gt;grafana -->
<g id="edge28" class="edge">
<title>telemetry&#45;&gt;grafana</title>
<path fill="none" stroke="#75867d" d="M529.63,-62.12C580.23,-86.79 653,-122.28 653,-122.28 653,-122.28 1049,-122.28 1049,-122.28 1049,-122.28 1105.28,-90.57 1148.43,-66.26"/>
<polygon fill="#75867d" stroke="#75867d" points="1149.56,-68.43 1154.46,-62.86 1147.15,-64.16 1149.56,-68.43"/>
<text text-anchor="middle" x="861" y="-141.48" font-family="Arial" font-size="9.00" fill="#52615a">/metrics</text>
</g>
<!-- loki -->
<g id="node21" class="node">
<title>loki</title>
<path fill="#e6f0f3" stroke="#477589" d="M1441.84,-61.78C1441.84,-61.78 1352.16,-61.78 1352.16,-61.78 1346.16,-61.78 1340.16,-55.78 1340.16,-49.78 1340.16,-49.78 1340.16,-28 1340.16,-28 1340.16,-22 1346.16,-16 1352.16,-16 1352.16,-16 1441.84,-16 1441.84,-16 1447.84,-16 1453.84,-22 1453.84,-28 1453.84,-28 1453.84,-49.78 1453.84,-49.78 1453.84,-55.78 1447.84,-61.78 1441.84,-61.78"/>
<text text-anchor="middle" x="1397" y="-42.69" font-family="Arial" font-size="11.00" fill="#17211d">LOKI</text>
<text text-anchor="middle" x="1397" y="-28.44" font-family="Arial" font-size="11.00" fill="#17211d">Logs estruturados</text>
</g>
<!-- telemetry&#45;&gt;loki -->
<g id="edge29" class="edge">
<title>telemetry&#45;&gt;loki</title>
<path fill="none" stroke="#75867d" d="M529.63,-62.12C580.23,-86.79 653,-122.28 653,-122.28 653,-122.28 1300,-122.28 1300,-122.28 1300,-122.28 1335.68,-91.61 1363.76,-67.47"/>
<polygon fill="#75867d" stroke="#75867d" points="1365.12,-69.53 1368.83,-63.1 1361.93,-65.81 1365.12,-69.53"/>
<text text-anchor="middle" x="1217" y="-141.48" font-family="Arial" font-size="9.00" fill="#52615a">logs</text>
</g>
<!-- tempo -->
<g id="node19" class="node">
<title>tempo</title>
<path fill="#e9e4f5" stroke="#7458a6" d="M1023.84,-61.78C1023.84,-61.78 862.16,-61.78 862.16,-61.78 856.16,-61.78 850.16,-55.78 850.16,-49.78 850.16,-49.78 850.16,-28 850.16,-28 850.16,-22 856.16,-16 862.16,-16 862.16,-16 1023.84,-16 1023.84,-16 1029.84,-16 1035.84,-22 1035.84,-28 1035.84,-28 1035.84,-49.78 1035.84,-49.78 1035.84,-55.78 1029.84,-61.78 1023.84,-61.78"/>
<text text-anchor="middle" x="943" y="-42.69" font-family="Arial" font-size="11.00" fill="#17211d">TEMPO</text>
<text text-anchor="middle" x="943" y="-28.44" font-family="Arial" font-size="11.00" fill="#17211d">Tracing distribuído ponta a ponta</text>
</g>
<!-- collector&#45;&gt;tempo -->
<g id="edge26" class="edge">
<title>collector&#45;&gt;tempo</title>
<path fill="none" stroke="#75867d" d="M797.28,-38.89C800.44,-38.89 802.33,-38.89 802.33,-38.89 802.33,-38.89 822.74,-38.89 841.56,-38.89"/>
<polygon fill="#75867d" stroke="#75867d" points="841.51,-41.34 848.51,-38.89 841.51,-36.44 841.51,-41.34"/>
</g>
<!-- tempo&#45;&gt;grafana -->
<g id="edge27" class="edge">
<title>tempo&#45;&gt;grafana</title>
<path fill="none" stroke="#75867d" d="M1036.14,-38.89C1056.55,-38.89 1078.21,-38.89 1098.81,-38.89"/>
<polygon fill="#75867d" stroke="#75867d" points="1098.75,-41.34 1105.75,-38.89 1098.75,-36.44 1098.75,-41.34"/>
<text text-anchor="middle" x="1071.69" y="-44.59" font-family="Arial" font-size="9.00" fill="#52615a">datasource</text>
</g>
<!-- grafana&#45;&gt;loki -->
<!-- zabbix -->
<g id="node22" class="node">
<title>zabbix</title>
<path fill="#f5e5e7" stroke="#a84d58" d="M1708.71,-61.78C1708.71,-61.78 1519.29,-61.78 1519.29,-61.78 1513.29,-61.78 1507.29,-55.78 1507.29,-49.78 1507.29,-49.78 1507.29,-28 1507.29,-28 1507.29,-22 1513.29,-16 1519.29,-16 1519.29,-16 1708.71,-16 1708.71,-16 1714.71,-16 1720.71,-22 1720.71,-28 1720.71,-28 1720.71,-49.78 1720.71,-49.78 1720.71,-55.78 1714.71,-61.78 1708.71,-61.78"/>
<text text-anchor="middle" x="1614" y="-42.69" font-family="Arial" font-size="11.00" fill="#17211d">ZABBIX</text>
<text text-anchor="middle" x="1614" y="-28.44" font-family="Arial" font-size="11.00" fill="#17211d">Readiness • Campanhas • Produto web</text>
</g>
<!-- loki&#45;&gt;zabbix -->
<!-- zabbix&#45;&gt;telemetry -->
<g id="edge30" class="edge">
<title>zabbix&#45;&gt;telemetry</title>
<path fill="none" stroke="#75867d" stroke-dasharray="5,2" d="M1573.05,-62.12C1529.56,-86.79 1467,-122.28 1467,-122.28 1467,-122.28 653,-122.28 653,-122.28 653,-122.28 587.16,-90.17 537.19,-65.8"/>
<polygon fill="#75867d" stroke="#75867d" points="538.36,-63.65 530.99,-62.78 536.21,-68.05 538.36,-63.65"/>
<text text-anchor="middle" x="1087" y="-141.48" font-family="Arial" font-size="9.00" fill="#52615a">web scenarios</text>
</g>
</g>
</svg>
